<svg xmlns="http://www.w3.org/2000/svg" xmlns:xlink="http://www.w3.org/1999/xlink" width="50" zoomAndPan="magnify" viewBox="0 0 37.5 37.499999" height="50" preserveAspectRatio="xMidYMid meet" version="1.0"><defs><clipPath id="f04f9f6690"><path d="M 0 0 L 37.007812 0 L 37.007812 37.007812 L 0 37.007812 Z M 0 0 " clip-rule="nonzero"/></clipPath></defs><g clip-path="url(#f04f9f6690)"><path fill="#ffffff" d="M 33.753906 3.75 L 33.753906 0 L 26.253906 0 L 26.253906 3.75 L 22.503906 3.75 L 22.503906 0 L 15 0 L 15 3.75 L 11.253906 3.75 L 11.253906 0 L 3.75 0 L 3.75 3.75 L 0 3.75 L 0 3.753906 L 3.75 7.5 L 15 7.5 L 15 33.753906 L 15.003906 33.753906 L 18.753906 37.503906 L 22.503906 33.753906 L 22.503906 7.5 L 33.753906 7.5 L 37.503906 3.753906 L 37.503906 3.75 Z M 33.753906 3.75 " fill-opacity="1" fill-rule="nonzero"/></g><path fill="#ffffff" d="M 26.253906 11.253906 L 26.253906 30.003906 L 33.753906 22.503906 L 33.753906 11.253906 Z M 26.253906 11.253906 " fill-opacity="1" fill-rule="nonzero"/><path fill="#ffffff" d="M 7.496094 11.253906 L 3.75 11.253906 L 3.75 22.503906 L 3.753906 22.503906 L 7.5 26.253906 L 11.25 30.003906 L 11.253906 30.003906 L 11.253906 11.253906 Z M 7.496094 11.253906 " fill-opacity="1" fill-rule="nonzero"/></svg>